<?xml version="1.0" encoding="utf-8"?>
<!-- Generator: Adobe Illustrator 16.0.0, SVG Export Plug-In . SVG Version: 6.00 Build 0)  -->
<!DOCTYPE svg PUBLIC "-//W3C//DTD SVG 1.1//EN" "http://www.w3.org/Graphics/SVG/1.1/DTD/svg11.dtd">
<svg version="1.1" id="Layer_1" xmlns="http://www.w3.org/2000/svg" xmlns:xlink="http://www.w3.org/1999/xlink" x="0px" y="0px"
	 width="1045.448px" height="134.994px" viewBox="0 0 1045.448 134.994" enable-background="new 0 0 1045.448 134.994"
	 xml:space="preserve">
<path fill="#E81C40" d="M126.467,118.239c0,0.553-0.448,1-1,1H97.634c-0.552,0-1-0.447-1-1V19.406c0-0.552,0.448-1,1-1h27.833
	c0.552,0,1,0.448,1,1V118.239z"/>
<path fill="#EF3A60" d="M96.634,118.465c0,0.428-0.346,0.773-0.773,0.773H74.33c-0.427,0-0.773-0.346-0.773-0.773V42.013
	c0-0.428,0.347-0.773,0.773-0.773H95.86c0.427,0,0.773,0.346,0.773,0.773V118.465z"/>
<path fill="#F05071" d="M73.556,118.465c0,0.428-0.346,0.773-0.773,0.773H51.252c-0.427,0-0.773-0.346-0.773-0.773V67.013
	c0-0.428,0.347-0.773,0.773-0.773h21.531c0.427,0,0.773,0.346,0.773,0.773V118.465z"/>
<path fill="#F1617F" d="M50.479,118.465c0,0.428-0.346,0.773-0.773,0.773H28.174c-0.427,0-0.773-0.346-0.773-0.773V92.013
	c0-0.428,0.347-0.773,0.773-0.773h21.531c0.427,0,0.773,0.346,0.773,0.773V118.465z"/>
<g>
	<path fill="#FFFFFF" d="M192.38,102.168v5.217h-42.049V34.348h41.527v5.217h-35.997v28.38h33.389v5.217h-33.389v29.007H192.38z"/>
	<path fill="#FFFFFF" d="M201.559,91.317l4.8-2.817c2.504,8.765,9.912,14.712,21.911,14.712c12.208,0,18.364-6.26,18.364-14.607
		c0-8.765-7.721-12.104-18.885-15.651c-12.208-3.965-23.164-7.408-23.164-20.138c0-11.999,9.704-19.616,22.12-19.616
		c11.999,0,19.929,6.887,23.476,15.338l-4.695,2.608c-2.713-6.573-8.347-12.625-18.781-12.625c-10.121,0-16.486,5.947-16.486,14.086
		c0,8.765,7.408,11.478,17.842,14.92C241,71.806,252.268,75.875,252.268,88.5c0,12.104-9.495,20.033-23.998,20.033
		C214.602,108.533,204.898,101.647,201.559,91.317z"/>
	<path fill="#FFFFFF" d="M261.135,70.866c0-20.868,15.755-37.667,37.98-37.667c13.459,0,25.25,6.887,31.302,17.529l-4.904,2.817
		c-4.799-8.973-14.92-15.025-26.397-15.025c-19.199,0-32.45,14.399-32.45,32.345c0,17.947,13.251,32.345,32.45,32.345
		c11.582,0,21.807-6.156,26.606-15.338l4.904,2.817c-5.947,10.747-17.842,17.842-31.51,17.842
		C276.89,108.533,261.135,91.734,261.135,70.866z"/>
	<path fill="#FFFFFF" d="M384.67,88.813h-36.623l-7.095,18.572h-5.843l28.38-73.038h5.843l28.276,73.038h-5.843L384.67,88.813z
		 M382.688,83.596l-16.277-42.467l-16.277,42.467H382.688z"/>
	<path fill="#FFFFFF" d="M448.21,102.168v5.217h-39.962V34.348h5.53v67.821H448.21z"/>
	<path fill="#FFFFFF" d="M503.819,88.813h-36.623l-7.095,18.572h-5.843l28.38-73.038h5.843l28.276,73.038h-5.843L503.819,88.813z
		 M501.837,83.596L485.56,41.129l-16.277,42.467H501.837z"/>
</g>
<g>
	<path fill="#E81C40" d="M572.401,39.564h-22.955l-14.415,67.821h-5.635l14.415-67.821h-22.954l1.109-5.217h51.543L572.401,39.564z"
		/>
	<path fill="#E81C40" d="M573.606,82.97l10.335-48.623h5.53L579.136,82.97c-2.528,11.895,3.106,20.241,16.878,20.241
		c13.877,0,23.06-8.347,25.588-20.241l10.335-48.623h5.53L627.132,82.97c-3.282,15.441-16.181,25.563-32.249,25.563
		S570.324,98.412,573.606,82.97z"/>
</g>
<g>
	<path fill="#E81C40" d="M659.587,50.416v14.085h27.128V80.57h-27.128v26.815h-16.694V34.348h44.344v16.068H659.587z"/>
	<path fill="#E81C40" d="M696.625,83.804V34.348h16.694v47.996c0,5.53,2.608,10.226,11.478,10.226s11.478-4.695,11.478-10.226
		V34.348h16.694v49.457c0,15.651-12.104,25.042-28.172,25.042S696.625,99.456,696.625,83.804z"/>
	<path fill="#E81C40" d="M814.003,50.416h-18.78v56.969h-16.694V50.416h-18.781V34.348h54.256V50.416z"/>
	<path fill="#E81C40" d="M820.783,83.804V34.348h16.694v47.996c0,5.53,2.608,10.226,11.478,10.226s11.478-4.695,11.478-10.226
		V34.348h16.694v49.457c0,15.651-12.104,25.042-28.172,25.042S820.783,99.456,820.783,83.804z"/>
	<path fill="#E81C40" d="M913.747,83.387h-7.93v23.998h-16.694V34.348h29.215c13.877,0,25.042,11.164,25.042,25.042
		c0,8.973-5.426,17.111-13.46,21.181l15.547,26.815h-17.947L913.747,83.387z M905.817,68.78h12.521c4.591,0,8.348-4.069,8.348-9.391
		s-3.757-9.391-8.348-9.391h-12.521V68.78z"/>
	<path fill="#E81C40" d="M950.158,70.866c0-21.494,17.008-37.979,37.979-37.979c20.973,0,37.98,16.486,37.98,37.979
		c0,21.495-17.008,37.98-37.98,37.98C967.166,108.846,950.158,92.361,950.158,70.866z M1009.422,70.866
		c0-13.042-9.391-21.703-21.285-21.703s-21.285,8.66-21.285,21.703s9.391,21.703,21.285,21.703S1009.422,83.909,1009.422,70.866z"/>
</g>
</svg>
